<?xml version="1.0" standalone="no"?> <!DOCTYPE svg PUBLIC "-//W3C//DTD SVG 1.0//EN" "http://www.w3.org/TR/2001/REC-SVG-20010904/DTD/svg10.dtd" > <svg xmlns="http://www.w3.org/2000/svg" width="100%" height="100%">
<defs >
<font horiz-adv-x="665" ><font-face
    font-family="Stockholm Slab"
    units-per-em="1000"
    panose-1="2 0 0 0 0 0 0 0 0 0"
    ascent="750"
    descent="-250"
    alphabetic="0" />
<missing-glyph horiz-adv-x="1174" d="M602 800H762L472 0H312L602 800ZM0 560Q0 609 19 653T70 729T146 781T240 800Q289 800 333 781T409 730T461 653T480 560Q480 510 461 467T410 391T333 339T240 320Q190 320 147 339T71 390T19 466T0 560ZM160 560Q160 527
183 504T240 480Q273 480 296 503T320 560Q320 593 297 616T240 640Q207 640 184 617T160 560ZM594 240Q594 289 613 333T664 409T740 461T834 480Q883 480 927 461T1003 410T1055 333T1074 240Q1074 190 1055 147T1004 71T927 19T834 0Q784 0 741 19T665 70T613
146T594 240ZM754 240Q754 207 777 184T834 160Q867 160 890 183T914 240Q914 273 891 296T834 320Q801 320 778 297T754 240Z" />
<glyph unicode=" " glyph-name="space" horiz-adv-x="500" d="M0 1H1V0H0V1ZM0 1H1V0H0V1ZM399 1H400V0L399 1H400V0H399V1Z" />
<glyph unicode="!" glyph-name="exclam" horiz-adv-x="260" d="M10 320L0 800H160L150 320H10ZM10 0V160H150V0H10Z" />
<glyph unicode="&quot;" glyph-name="quotedbl" horiz-adv-x="481" d="M180 800L160 600H0L20 800H180ZM381 800L361 600H201L221 800H381Z" />
<glyph unicode="#" glyph-name="numbersign" horiz-adv-x="644" d="M271 204H211L204 160H44L51 204H0L28 364H78L88 424H36L64 584H114L124 640H284L274 584H334L344 640H504L494 584H544L517 424H468L458 364H508L481 204H431L424 160H264L271 204ZM238 364H298L308
424H248L238 364Z" />
<glyph unicode="$" glyph-name="dollar" horiz-adv-x="610" d="M350 240Q350 272 328 295T273 320H248Q199 320 156 339T80 390T29 466T10 560Q10 600 23 636T58 703T112 755T180 789V840H310V792Q348 781 381 759T438 707T476 639T490 561H331V563Q329 593 308
615T257 640H250Q217 640 194 617T170 560Q170 527 193 504T250 480H271Q320 480 363 461T439 410T491 333T510 240Q510 196 495 156T452 85T389 32T310 3V-40H180V8Q141 18 109 40T52 92T14 160T0 239H160V237Q161 205 183 184T237 160H276Q291 161 304 167T327
184T343 208T350 237V240Z" />
<glyph unicode="&amp;" glyph-name="ampersand" horiz-adv-x="660" d="M480 558H320V560Q320 593 297 616T240 640Q207 640 184 617T160 560Q160 527 183 504T240 480V320Q207 320 184 297T160 240Q160 207 183 184T238 160H280Q313 160 336 183T360 240V242H520V240Q520
190 501 147T450 71T373 19T280 0H238Q189 0 146 19T70 70T19 146T0 240Q0 286 16 327T61 400Q32 432 16 472T0 560Q0 609 19 653T70 729T146 781T240 800Q289 800 333 781T409 730T461 653T480 560V558ZM360 242V480H560V320H520V242H360Z" />
<glyph unicode="&apos;" glyph-name="quotesingle" horiz-adv-x="260" d="M160 800L140 600H0L20 800H160Z" />
<glyph unicode="(" glyph-name="parenleft" horiz-adv-x="345" d="M142 -149Q76 -49 38 92T0 400Q0 566 38 707T142 949L245 826Q206 748 178 638T150 400Q150 271 178 162T245 -26L142 -149Z" />
<glyph unicode=")" glyph-name="parenright" horiz-adv-x="345" d="M0 -26Q39 52 67 161T95 400Q95 528 67 638T0 826L103 949Q169 849 207 708T245 400Q245 234 207 93T103 -149L0 -26Z" />
<glyph unicode="*" glyph-name="asterisk" horiz-adv-x="517" d="M417 590L330 564L384 489L255 395L208 457L162 395L33 489L87 564L0 590L45 743L128 719V800H289V719L372 743L417 590Z" />
<glyph unicode="+" glyph-name="plus" horiz-adv-x="480" d="M0 480H110V590H270V480H380V320H270V210H110V320H0V480Z" />
<glyph unicode="," glyph-name="comma" horiz-adv-x="260" d="M160 100L140 -100H0L20 100H160Z" />
<glyph unicode="-" glyph-name="hyphen" horiz-adv-x="500" d="M0 480H400V320H0V480Z" />
<glyph unicode="." glyph-name="period" horiz-adv-x="260" d="M160 160V0H0V160H160Z" />
<glyph unicode="/" glyph-name="slash" horiz-adv-x="319" d="M80 800H219L139 0H0L80 800Z" />
<glyph unicode="0" glyph-name="zero" horiz-adv-x="900" d="M0 400Q0 483 31 556T117 683T244 768T400 800Q483 800 556 769T683 683T768 556T800 400Q800 317 769 244T683 117T556 32T400 0Q317 0 244 31T117 117T32 244T0 400ZM160 400Q160 350 179 307T230
231T306 179T400 160Q449 160 493 179T569 230T621 306T640 400Q640 449 621 493T570 569T493 621T400 640Q350 640 307 621T231 570T179 493T160 400Z" />
<glyph unicode="1" glyph-name="one" horiz-adv-x="340" d="M240 0H80V640H0V800H240V0Z" />
<glyph unicode="2" glyph-name="two" horiz-adv-x="580" d="M310 523Q320 541 320 560Q320 593 297 616T240 640Q207 640 184 617T160 560V558H0V560Q0 608 18 651T67 726T140 778T230 800H240Q289 800 333 781T409 730T461 653T480 560Q480 520 468 485T434 419L276
160H480V0H0L310 523Z" />
<glyph unicode="3" glyph-name="three" horiz-adv-x="620" d="M160 240Q160 207 183 184T240 160H280Q313 160 336 183T360 240Q360 273 337 296T280 320H241V480H260Q293 480 316 503T340 560Q340 593 317 616T260 640Q227 640 204 617T180 561V560V561H20Q20
610 39 653T90 729T166 781T260 800Q309 800 353 781T429 730T481 653T500 560Q500 518 486 480T448 411Q481 378 500 335T520 240Q520 190 501 147T450 71T373 19T280 0H240Q190 0 147 19T71 70T19 146T0 240H160Z" />
<glyph unicode="4" glyph-name="four" horiz-adv-x="740" d="M0 162L99 320L400 800H560V320H640V160H560V0H400V160H188L0 162ZM400 320V498L288 320H400Z" />
<glyph unicode="5" glyph-name="five" horiz-adv-x="660" d="M79 800H480V640H210L193 560H280Q338 560 389 538T478 478T538 389T560 280Q560 222 538 171T478 82T389 22T280 0Q222 0 171 22T82 82T22 171T0 280H160Q160 255 169 234T195 196T233 170T280 160Q305
160 326 169T364 195T390 233T400 280Q400 305 391 326T365 364T327 390T280 400H160L4 433L79 800Z" />
<glyph unicode="6" glyph-name="six" horiz-adv-x="740" d="M0 320Q0 379 19 431T74 525L280 800H480L359 638Q419 631 470 604T559 534T618 436T640 320Q640 254 615 196T547 94T445 25T320 0Q254 0 196 25T94 93T25 195T0 320ZM480 320Q480 353 468 382T433
433T382 467T320 480Q287 480 258 468T207 433T173 382T160 320Q160 287 172 258T207 207T258 173T320 160Q353 160 382 172T433 207T467 258T480 320Z" />
<glyph unicode="7" glyph-name="seven" horiz-adv-x="740" d="M2 0L365 640H0V800H640L186 0H2ZM0 800H160V560H0V800Z" />
<glyph unicode="8" glyph-name="eight" horiz-adv-x="620" d="M240 0Q190 0 147 19T71 70T19 146T0 240Q0 291 19 334T72 411Q47 442 34 480T20 560Q20 609 39 653T90 729T166 781T260 800Q309 800 353 781T429 730T481 653T500 560Q500 518 486 480T448 411Q481
378 500 335T520 240Q520 190 501 147T450 71T373 19T280 0H240ZM260 320Q255 320 250 320T240 321V320Q207 320 184 297T160 240Q160 207 183 184T240 160H280Q313 160 336 183T360 240Q360 273 337 296T280 320V321Q275 320 270 320T260 320ZM260 480Q293 480
316 503T340 560Q340 593 317 616T260 640Q227 640 204 617T180 560Q180 527 203 504T260 480Z" />
<glyph unicode="9" glyph-name="nine" horiz-adv-x="740" d="M640 480Q640 421 621 369T566 275L360 0H160L281 162Q221 169 170 196T81 266T22 363T0 480Q0 546 25 604T93 706T195 775T320 800Q386 800 444 775T546 707T615 605T640 480ZM160 480Q160 447 172
418T207 367T258 333T320 320Q353 320 382 332T433 367T467 418T480 480Q480 513 468 542T433 593T382 627T320 640Q287 640 258 628T207 593T173 542T160 480Z" />
<glyph unicode=":" glyph-name="colon" horiz-adv-x="260" d="M0 480H160V320H0V480ZM0 160H160V0H0V160Z" />
<glyph unicode=";" glyph-name="semicolon" horiz-adv-x="261" d="M0 479H160V320H0V479ZM21 100H161L140 -100H0L21 100Z" />
<glyph unicode="&lt;" glyph-name="less" horiz-adv-x="284" d="M139 320L184 120H45L0 320L45 520H184L139 320Z" />
<glyph unicode="=" glyph-name="equal" horiz-adv-x="500" d="M0 560H400V400H0V560ZM0 320H400V160H0V320Z" />
<glyph unicode="&gt;" glyph-name="greater" horiz-adv-x="284" d="M0 520H139L184 320L139 120H0L45 320L0 520Z" />
<glyph unicode="?" glyph-name="question" horiz-adv-x="580" d="M245 800Q293 799 336 780T411 728T461 652T480 560Q480 523 471 493T444 436T404 389T353 349Q339 338 330 322T320 287V285H160Q160 352 195 407T285 494Q301 505 310 522T320 560Q320 593 297
616T240 640H234Q204 637 183 615T160 563L0 562Q0 610 19 653T70 728T145 779T236 800H245ZM160 160H320V0H160V160Z" />
<glyph unicode="@" glyph-name="at" horiz-adv-x="900" d="M160 400Q160 449 179 493T230 569T306 621T400 640Q449 640 493 621T569 570T621 493T640 400Q640 347 618 300Q618 292 625 286T640 280Q651 280 657 288L666 313Q680 355 680 400Q680 458 658 509T598
598T509 658T400 680Q342 680 291 658T202 598T142 509T120 400Q120 342 142 291T202 202T291 142T400 120H640V0H400Q317 0 244 31T117 117T32 244T0 400Q0 483 31 556T117 683T244 768T400 800Q483 800 556 769T683 683T768 556T800 400Q800 323 772 253Q757
212 721 186T640 160Q610 160 584 172T538 204Q509 183 474 172T400 160Q350 160 307 179T231 230T179 306T160 400ZM280 400Q280 375 289 354T315 316T353 290T400 280Q425 280 446 289T484 315T510 353T520 400Q520 425 511 446T485 484T447 510T400 520Q375
520 354 511T316 485T290 447T280 400Z" />
<glyph unicode="A" glyph-name="A" horiz-adv-x="900" d="M178 800H320V792L323 800H475L640 393L734 160H800V0H480V160H561L532 233H267L237 160H316V0H0V160H64L258 640H178V800ZM331 393H467L399 560L331 393Z" />
<glyph unicode="B" glyph-name="B" horiz-adv-x="820" d="M0 800H80H440Q489 800 533 781T609 730T661 653T680 560Q680 521 668 486T636 422Q674 389 697 342T720 240Q720 190 701 147T650 71T573 19T480 0H0V160H80V640H0V800ZM240 320V160H480Q513 160 536
183T560 240Q560 273 537 296T480 320H458V321Q453 320 449 320T440 320H240ZM240 480H440Q473 480 496 503T520 560Q520 593 497 616T440 640H240V480Z" />
<glyph unicode="C" glyph-name="C" horiz-adv-x="866" d="M766 239Q743 186 706 142T621 67T517 18T400 0Q317 0 244 31T117 117T32 244T0 400Q0 483 31 556T117 683T244 768T400 800Q448 800 493 789T580 757V800H740L741 561H577Q544 597 499 618T400 640Q350
640 307 621T231 570T180 493T161 400Q161 350 180 307T231 231T306 180T400 161Q453 161 498 182T577 239H766V239Z" />
<glyph unicode="D" glyph-name="D" horiz-adv-x="820" d="M0 160H80V640H0V800H320Q403 800 476 769T603 683T688 556T720 400Q720 317 689 244T603 117T476 32T320 0H0V160ZM240 160H320V161Q369 161 412 180T488 231T539 306T558 400Q558 449 539 492T488 568T413
620T320 640H240V160Z" />
<glyph unicode="E" glyph-name="E" horiz-adv-x="740" d="M480 640H240V480H399V320H240V160H480V240H640V0H0V160H80V640H0V800H640V560H480V640Z" />
<glyph unicode="F" glyph-name="F" horiz-adv-x="740" d="M480 640H240V480H399V320H240V160H320V0H0V160H80V640H0V800H640V560H480V640Z" />
<glyph unicode="G" glyph-name="G" horiz-adv-x="900" d="M400 480H800V0H640V80Q589 42 529 21T400 0Q317 0 244 31T117 117T32 244T0 400Q0 483 31 556T117 683T244 768T400 800Q457 800 508 785T605 743V800H765V563Q765 561 766 561H577Q544 597 499 618T400
640Q350 640 307 621T231 570T179 493T160 400Q160 350 179 307T230 231T306 179T400 160Q439 160 474 172T539 205T591 255T626 320H400V480Z" />
<glyph unicode="H" glyph-name="H" horiz-adv-x="900" d="M0 800H320V640H240V479H560V640H480V800H800V640H720V160H800V0H480V160H560V319H240V160H320V0H0V160H80V640H0V800Z" />
<glyph unicode="I" glyph-name="I" horiz-adv-x="420" d="M0 160H80V640H0V800H320V640H240V160H320V0H0V160Z" />
<glyph unicode="J" glyph-name="J" horiz-adv-x="740" d="M160 320Q160 287 172 258T207 207T258 173T320 160Q353 160 382 172T433 207T467 258T480 320V640H400V800H640V320Q640 254 615 196T547 94T445 25T320 0Q254 0 196 25T94 93T25 195T0 320H160Z" />
<glyph unicode="K" glyph-name="K" horiz-adv-x="840" d="M0 800H320V640H240V456L514 800H740V640H592L409 412L611 160H740V0H534L307 284L240 200V160H320V0H0V160H80V640H0V800Z" />
<glyph unicode="L" glyph-name="L" horiz-adv-x="740" d="M480 240H640V0H0V160H80V640H0V800H320V640H240V160H480V240Z" />
<glyph unicode="M" glyph-name="M" horiz-adv-x="1060" d="M240 799L241 800L481 487L720 798V800H960V640H880V160H960V0H640V160H720V535L555 320H407L240 538V160H320V0H0V160H80V640H0V800H80H240V799Z" />
<glyph unicode="N" glyph-name="N" horiz-adv-x="979" d="M559 800H879V640H800V0H639L240 529V160H320V0H0V160H80V640H0V800H235L640 265V640H559V800Z" />
<glyph unicode="O" glyph-name="O" horiz-adv-x="900" d="M0 400Q0 483 31 556T117 683T244 768T400 800Q483 800 556 769T683 683T768 556T800 400Q800 317 769 244T683 117T556 32T400 0Q317 0 244 31T117 117T32 244T0 400ZM160 400Q160 350 179 307T230 231T306
179T400 160Q449 160 493 179T569 230T621 306T640 400Q640 449 621 493T570 569T493 621T400 640Q350 640 307 621T231 570T179 493T160 400Z" />
<glyph unicode="P" glyph-name="P" horiz-adv-x="740" d="M0 800H400Q449 800 493 781T569 730T621 653T640 560Q640 510 621 467T570 391T493 339T400 320H240V160H320V0H0V160H80V640H0V800ZM240 480H400Q433 480 456 503T480 560Q480 593 457 616T400 640H240V480Z" />
<glyph unicode="Q" glyph-name="Q" horiz-adv-x="900" d="M800 1Q737 0 694 19T619 66Q571 34 516 17T400 0Q317 0 244 31T117 117T32 244T0 400Q0 483 31 556T117 683T244 768T400 800Q483 800 556 769T683 683T768 556T800 400Q800 337 782 281T732 177Q762
161 800 161V1ZM160 400Q160 350 179 307T230 231T306 179T400 160Q458 160 507 186Q486 206 461 218T401 229V389Q441 390 473 383T530 362T576 330T615 293Q640 343 640 400Q640 449 621 493T570 569T493 621T400 640Q350 640 307 621T231 570T179 493T160 400Z"
/>
<glyph unicode="R" glyph-name="R" horiz-adv-x="770" d="M352 320H240V160H320V0H0V160H80V640H0V800H400Q449 800 493 781T569 730T621 653T640 560Q640 491 605 435T513 349L592 160H670V0H486L352 320ZM240 480H400Q433 480 456 503T480 560Q480 593 457 616T400
640H240V480Z" />
<glyph unicode="S" glyph-name="S" horiz-adv-x="610" d="M0 239H1H160V227Q164 198 186 175T237 150H276Q305 152 326 169T350 217V220Q350 256 324 278T259 319T175 354T91 397T26 461T0 560Q0 609 19 652T70 728T145 780T238 800H259Q278 799 296 795T331 785V800H491V561H331V563Q330
578 324 593T308 620T285 640T257 650H240Q207 650 184 632T160 580Q160 554 186 535T251 499T335 461T419 412T484 342T510 240Q510 191 491 148T440 72T364 20T271 0H238Q218 0 198 4T160 15V0H0V239Z" />
<glyph unicode="T" glyph-name="T" horiz-adv-x="740" d="M160 160H240V640H160V560H0V800H640V560H480V640H400V160H480V0H160V160Z" />
<glyph unicode="U" glyph-name="U" horiz-adv-x="900" d="M0 800H320V640H240V320Q240 287 252 258T287 207T338 173T400 160Q433 160 462 172T513 207T547 258T560 320V640H480V800H800V640H720V320Q720 254 695 196T627 94T525 25T400 0Q334 0 276 25T174 93T105
195T80 320V640H0V800Z" />
<glyph unicode="V" glyph-name="V" horiz-adv-x="900" d="M0 800H320V640H237L399 240L561 640H480V800H800V640H734L475 0H323L64 640H0V800Z" />
<glyph unicode="W" glyph-name="W" horiz-adv-x="1380" d="M500 800H780V640H717L879 240L1041 640H980V800H1280V640H1214L955 0H803L639 405L475 0H323L64 640H0V800H300V640H237L399 240L561 640H500V800Z" />
<glyph unicode="X" glyph-name="X" horiz-adv-x="906" d="M480 160H481L400 268L318 160H320V0H0V160H119L300 401L120 640H0V800H320V640L400 534L480 640V800H806L800 792V640H683L500 401L684 160H800V8L806 0H480V160Z" />
<glyph unicode="Y" glyph-name="Y" horiz-adv-x="906" d="M240 160H320V374L120 640H0V800H320V640L400 534L480 640V800H806L800 792V640H684L480 373V160H560V0H240V160Z" />
<glyph unicode="Z" glyph-name="Z" horiz-adv-x="740" d="M20 800H640V640L215 160H480V240H640V0H0V160L426 640H180V560H20V800Z" />
<glyph unicode="[" glyph-name="bracketleft" horiz-adv-x="320" d="M0 940H220V800H140V0H220V-140H0V940Z" />
<glyph unicode="\" glyph-name="backslash" horiz-adv-x="379" d="M279 0H159L0 800H120L279 0Z" />
<glyph unicode="]" glyph-name="bracketright" horiz-adv-x="320" d="M220 -140H0V0H80V800H0V940H220V-140Z" />
<glyph unicode="^" glyph-name="asciicircum" horiz-adv-x="300" d="M200 920V800L100 820L0 800V920L100 940L200 920Z" />
<glyph unicode="_" glyph-name="underscore" horiz-adv-x="500" d="M0 -160H400V-280H0V-160Z" />
<glyph unicode="`" glyph-name="grave" horiz-adv-x="300" d="M0 940L200 920V800L0 820V940Z" />
<glyph unicode="a" glyph-name="a" horiz-adv-x="900" d="M561 160H237L173 0H0L258 640H218V800H320V792L323 800H475L800 0H627L561 160ZM302 320H496L399 560L302 320Z" />
<glyph unicode="b" glyph-name="b" horiz-adv-x="640" d="M-40 800H0H260Q309 800 353 781T429 730T481 653T500 560Q500 521 488 486T456 422Q494 389 517 342T540 240Q540 190 521 147T470 71T393 19T300 0H0V640H-40V800ZM160 320V160H300Q333 160 356 183T380
240Q380 273 357 296T300 320H278V321Q273 320 269 320T260 320H160ZM160 480H260Q293 480 316 503T340 560Q340 593 317 616T260 640H160V480Z" />
<glyph unicode="c" glyph-name="c" horiz-adv-x="866" d="M766 239Q743 186 706 142T621 67T517 18T400 0Q317 0 244 31T117 117T32 244T0 400Q0 483 31 556T117 683T244 768T400 800Q461 800 517 783T620 734T705 658T766 561H577Q544 597 499 618T400 640Q350
640 307 621T231 570T180 493T161 400Q161 350 180 307T231 231T306 180T400 161Q453 161 498 182T577 239H766V239Z" />
<glyph unicode="d" glyph-name="d" horiz-adv-x="680" d="M0 800H180Q263 800 336 769T463 683T548 556T580 400Q580 317 549 244T463 117T336 32T180 0H0V800ZM160 160H180V161Q229 161 272 180T348 231T399 306T418 400Q418 449 399 492T348 568T273 620T180
640H160V160ZM-40 800H0V640H-40V800Z" />
<glyph unicode="e" glyph-name="e" horiz-adv-x="580" d="M400 320H160V160H480V0H0V800H480V640H160V480H400V320ZM-40 800H0V640H-40V800Z" />
<glyph unicode="f" glyph-name="f" horiz-adv-x="580" d="M400 320H160V0H0V800H480V640H160V480H400V320ZM-40 800H0V640H-40V800Z" />
<glyph unicode="g" glyph-name="g" horiz-adv-x="900" d="M400 480H800V0H640V80Q589 42 529 21T400 0Q317 0 244 31T117 117T32 244T0 400Q0 483 31 556T117 683T244 768T400 800Q461 800 517 783T620 733T705 657T766 561H577Q544 597 499 618T400 640Q350 640
307 621T231 570T179 493T160 400Q160 350 179 307T230 231T306 179T400 160Q439 160 474 172T539 205T591 255T626 320H400V480Z" />
<glyph unicode="h" glyph-name="h" horiz-adv-x="660" d="M160 479H400V800H560V0H400V319H160V0H0V800H160V479ZM-40 800H0V640H-40V800Z" />
<glyph unicode="i" glyph-name="i" horiz-adv-x="260" d="M0 0V800H160V0H0ZM-40 800H0V640H-40V800Z" />
<glyph unicode="j" glyph-name="j" horiz-adv-x="420" d="M80 800H160H320V320Q320 254 295 196T227 94T125 25T0 0V160Q33 160 62 172T113 207T147 258T160 320V640H80V800Z" />
<glyph unicode="k" glyph-name="k" horiz-adv-x="724" d="M160 501L398 800H604L293 412L624 0H418L191 284L160 245V0H0V800H160V501ZM-40 800H0V640H-40V800Z" />
<glyph unicode="l" glyph-name="l" horiz-adv-x="580" d="M0 800H160V160H480V3V0H0V800ZM-40 800H0V640H-40V800Z" />
<glyph unicode="m" glyph-name="m" horiz-adv-x="900" d="M400 522L640 800H800V0H640V555L400 277L160 555V0H0V800H160L400 522ZM-40 800H0V640H-40V800Z" />
<glyph unicode="n" glyph-name="n" horiz-adv-x="740" d="M0 800H155L480 303V800H640V0H486L160 500V0H0V800ZM-40 800H0V640H-40V800Z" />
<glyph unicode="o" glyph-name="o" horiz-adv-x="900" d="M0 400Q0 483 31 556T117 683T244 768T400 800Q483 800 556 769T683 683T768 556T800 400Q800 317 769 244T683 117T556 32T400 0Q317 0 244 31T117 117T32 244T0 400ZM160 400Q160 350 179 307T230 231T306
179T400 160Q449 160 493 179T569 230T621 306T640 400Q640 449 621 493T570 569T493 621T400 640Q350 640 307 621T231 570T179 493T160 400Z" />
<glyph unicode="p" glyph-name="p" horiz-adv-x="600" d="M0 0V800H260Q309 800 353 781T429 730T481 653T500 560Q500 510 481 467T430 391T353 339T260 320H160V0H0ZM160 480H260Q293 480 316 503T340 560Q340 593 317 616T260 640H160V480ZM-40 800H0V640H-40V800Z" />
<glyph unicode="q" glyph-name="q" horiz-adv-x="902" d="M0 400Q0 483 31 556T117 683T244 768T400 800Q483 800 556 769T683 683T768 556T800 400Q800 320 772 251T692 127L802 0H592L562 34Q486 0 400 0Q317 0 244 31T117 117T32 244T0 400ZM527 320L587 250Q612
281 626 319T640 400Q640 449 621 493T570 569T493 621T400 640Q350 640 307 621T231 570T179 493T160 400Q160 350 179 307T230 231T306 179T400 160Q413 160 425 161T450 165L317 320H527Z" />
<glyph unicode="r" glyph-name="r" horiz-adv-x="620" d="M0 0V800H260Q309 800 353 781T429 730T481 653T500 560Q500 491 465 435T373 349L519 0H346L212 320H160V0H0ZM160 480H260Q293 480 316 503T340 560Q340 593 317 616T260 640H160V480ZM346 0H519L520
-1L346 0ZM-40 800H0V640H-40V800ZM-40 800H0V640H-40V800Z" />
<glyph unicode="s" glyph-name="s" horiz-adv-x="610" d="M329 578Q323 604 303 625T257 650H250Q217 650 194 632T170 580Q170 554 195 535T258 499T340 461T422 412T485 342T510 240Q510 191 491 148T440 72T364 20T271 0H238Q189 0 146 19T71 71T19 147T0 239H160V237Q161
205 183 179T237 150H276Q305 152 326 169T350 217V220Q350 256 325 278T262 319T180 354T98 397T35 461T10 560Q10 609 29 652T80 728T155 780T248 800H259Q295 799 329 786V800H492V561H329V578Z" />
<glyph unicode="t" glyph-name="t" horiz-adv-x="660" d="M0 800H560V640H358V0H198V640H0V800Z" />
<glyph unicode="u" glyph-name="u" horiz-adv-x="740" d="M-40 800H160V320Q160 287 172 258T207 207T258 173T320 160Q353 160 382 172T433 207T467 258T480 320V800H640V320Q640 254 615 196T547 94T445 25T320 0Q254 0 196 25T94 93T25 195T0 320V640H-40V800Z" />
<glyph unicode="v" glyph-name="v" horiz-adv-x="836" d="M-34 800H109L335 240L563 800H736L411 0H259L0 640H-34V800Z" />
<glyph unicode="w" glyph-name="w" horiz-adv-x="1090" d="M-31 800H122L258 310L390 785H556L688 310L824 800H990L768 0H606L473 485L338 0H177L0 640H-31V800Z" />
<glyph unicode="x" glyph-name="x" horiz-adv-x="877" d="M374 538L571 800H777L475 403L777 2V0H579L374 269L169 0H-29V2L272 403L92 640H1V800H177L374 538Z" />
<glyph unicode="y" glyph-name="y" horiz-adv-x="786" d="M-50 800H80L280 534L480 800H686L360 373V0H200V374L0 640H-50V800Z" />
<glyph unicode="z" glyph-name="z" horiz-adv-x="740" d="M10 800H640V640L215 160H640V0H0V160L426 640H170V560H10V800Z" />
<glyph unicode="{" glyph-name="braceleft" horiz-adv-x="382" d="M61 720Q61 769 77 810T121 879T190 924T281 940H282V800H281Q248 800 225 777T201 720V560Q201 513 185 473T140 400Q169 368 185 327T201 240V78Q201 45 224 23T281 0L282 -2V-142H281Q231 -142
191 -126T122 -82T77 -13T61 78V250Q61 282 49 305T5 330H0L1 470Q34 470 47 493T61 550V720Z" />
<glyph unicode="|" glyph-name="bar" horiz-adv-x="230" d="M0 800H130V0H0V800Z" />
<glyph unicode="}" glyph-name="braceright" horiz-adv-x="382" d="M221 550Q221 517 234 494T281 470L282 330H277Q245 328 233 305T221 250V78Q221 28 205 -12T161 -81T91 -126T1 -142H0V-2L1 0Q34 0 57 22T81 78V240Q81 286 97 327T142 400Q113 432 97 472T81
560V720Q81 753 58 776T1 800H0V940H1Q50 940 91 924T160 880T205 810T221 720V550Z" />
<glyph unicode="~" glyph-name="asciitilde" horiz-adv-x="323" d="M126 810Q94 799 62 800T0 812V938Q29 927 59 926T122 935Q148 942 173 942T223 937V811Q175 823 126 810Z" />
</font>
</defs>
</svg>
